<svg width="50" height="50" viewBox="0 0 50 50" fill="none" xmlns="http://www.w3.org/2000/svg">
<path d="M25 50C38.8071 50 50 38.8071 50 25C50 11.1929 38.8071 0 25 0C11.1929 0 0 11.1929 0 25C0 38.8071 11.1929 50 25 50Z" fill="#5F7EDD"/>
<path d="M24.9974 31.81L16.5974 26.8475L24.9974 38.6875L33.4049 26.8475L24.9974 31.81Z" fill="white"/>
<path d="M33.4001 25.2549L24.9976 30.2199L16.5951 25.2549L24.9976 11.3124L33.4001 25.2549Z" fill="white"/>
<path d="M33.4001 25.2549L24.9976 21.4349V11.3124L33.4001 25.2549Z" fill="#C1CCF7"/>
<path d="M33.4051 26.8475L24.9976 38.6875V31.81L33.4051 26.8475Z" fill="#C1CCF7"/>
<path d="M24.9974 21.4351V30.2201L16.5974 25.2551L24.9974 21.4351Z" fill="#C1CCF7"/>
<path d="M33.4001 25.2551L24.9976 30.2201V21.4351L33.4001 25.2551Z" fill="#8198EE"/>
</svg>
